<svg width="122" height="123" viewBox="0 0 122 123" fill="none" xmlns="http://www.w3.org/2000/svg">
<circle cx="58.8602" cy="50.7" r="47.8602" fill="#EAEEF9"/>
<path d="M112.67 30.95C114.935 30.95 116.77 29.1144 116.77 26.85C116.77 24.5856 114.935 22.75 112.67 22.75C110.406 22.75 108.57 24.5856 108.57 26.85C108.57 29.1144 110.406 30.95 112.67 30.95Z" fill="#EAEEF9"/>
<path d="M118.671 14.9496C120.217 14.9496 121.471 13.696 121.471 12.1496C121.471 10.6032 120.217 9.34961 118.671 9.34961C117.125 9.34961 115.871 10.6032 115.871 12.1496C115.871 13.696 117.125 14.9496 118.671 14.9496Z" fill="#EAEEF9"/>
<path d="M16.7205 10.4C19.5924 10.4 21.9205 8.07189 21.9205 5.2C21.9205 2.32812 19.5924 0 16.7205 0C13.8486 0 11.5205 2.32812 11.5205 5.2C11.5205 8.07189 13.8486 10.4 16.7205 10.4Z" fill="#EAEEF9"/>
<path d="M77.3689 24.6251H51.874V14.9497H85.2938C85.3552 14.9497 85.4167 14.9497 85.4781 14.9497C90.7 15.073 94.9389 19.3868 94.9389 24.6251H83.8808" fill="#CCD4E2"/>
<g filter="url(#filter0_d_35421_42307)">
<path d="M86.2147 14.9497C84.2489 15.073 82.4059 15.8741 81.1158 17.2299C80.9929 17.3532 80.87 17.4764 80.7472 17.6613C79.5799 19.0171 78.7199 20.8043 78.7199 22.7147V80.2743C78.7199 85.6358 74.4195 89.9497 69.0748 89.9497H22.1396V22.2833C22.2625 20.3113 22.9997 18.5241 24.2898 17.2299C25.7028 15.8125 27.6072 14.9497 29.7574 14.9497H76.9997H85.969C86.0304 14.9497 86.0919 14.9497 86.2147 14.9497Z" fill="url(#paint0_linear_35421_42307)"/>
</g>
<path d="M69.3825 28.1379H55.4371C54.9457 28.1379 54.5156 27.7065 54.5156 27.2135C54.5156 26.7205 54.9457 26.2891 55.4371 26.2891H69.3825C69.874 26.2891 70.304 26.7205 70.304 27.2135C70.304 27.7065 69.9354 28.1379 69.3825 28.1379Z" fill="#B3BFD3"/>
<path d="M48.8636 28.1379H30.6793C30.1878 28.1379 29.7578 27.7065 29.7578 27.2135C29.7578 26.7205 30.1878 26.2891 30.6793 26.2891H48.9251C49.4165 26.2891 49.8466 26.7205 49.8466 27.2135C49.8466 27.7065 49.4165 28.1379 48.8636 28.1379Z" fill="#B3BFD3"/>
<path d="M60.5356 37.2585H42.4127C41.9212 37.2585 41.4912 36.8271 41.4912 36.3341C41.4912 35.8411 41.9212 35.4097 42.4127 35.4097H60.5356C61.027 35.4097 61.4571 35.8411 61.4571 36.3341C61.5185 36.8271 61.0885 37.2585 60.5356 37.2585Z" fill="#B3BFD3"/>
<path d="M36.5769 37.2585H30.6793C30.1878 37.2585 29.7578 36.8271 29.7578 36.3341C29.7578 35.8411 30.1878 35.4097 30.6793 35.4097H36.5769C37.0684 35.4097 37.4984 35.8411 37.4984 36.3341C37.4984 36.8271 37.0684 37.2585 36.5769 37.2585Z" fill="#D4DBEC"/>
<path d="M69.3818 46.3796H58.2623C57.7709 46.3796 57.3408 45.9482 57.3408 45.4552C57.3408 44.9622 57.7709 44.5308 58.2623 44.5308H69.3818C69.8733 44.5308 70.3033 44.9622 70.3033 45.4552C70.3033 45.9482 69.9347 46.3796 69.3818 46.3796Z" fill="#D4DBEC"/>
<path d="M52.9182 46.3796H30.6793C30.1878 46.3796 29.7578 45.9482 29.7578 45.4552C29.7578 44.9622 30.1878 44.5308 30.6793 44.5308H52.9182C53.4097 44.5308 53.8397 44.9622 53.8397 45.4552C53.8397 45.9482 53.4711 46.3796 52.9182 46.3796Z" fill="#B3BFD3"/>
<path d="M60.5354 55.5002H48.3102C47.8187 55.5002 47.3887 55.0688 47.3887 54.5758C47.3887 54.0828 47.8187 53.6514 48.3102 53.6514H60.5354C61.0269 53.6514 61.4569 54.0828 61.4569 54.5758C61.5184 55.0688 61.0883 55.5002 60.5354 55.5002Z" fill="#B3BFD3"/>
<path d="M42.966 55.5002H30.6793C30.1878 55.5002 29.7578 55.0688 29.7578 54.5758C29.7578 54.0828 30.1878 53.6514 30.6793 53.6514H43.0274C43.5189 53.6514 43.9489 54.0828 43.9489 54.5758C43.9489 55.0688 43.5189 55.5002 42.966 55.5002Z" fill="#D4DBEC"/>
<path d="M69.3826 64.6213H60.8434C60.3519 64.6213 59.9219 64.1899 59.9219 63.6969C59.9219 63.2039 60.3519 62.7725 60.8434 62.7725H69.3826C69.8741 62.7725 70.3041 63.2039 70.3041 63.6969C70.3041 64.1899 69.9355 64.6213 69.3826 64.6213Z" fill="#B3BFD3"/>
<path d="M55.3136 64.6213H40.9996C40.5082 64.6213 40.0781 64.1899 40.0781 63.6969C40.0781 63.2039 40.5082 62.7725 40.9996 62.7725H55.3136C55.8051 62.7725 56.2351 63.2039 56.2351 63.6969C56.2351 64.1899 55.8051 64.6213 55.3136 64.6213Z" fill="#D4DBEC"/>
<path d="M35.6554 64.6213H30.6793C30.1878 64.6213 29.7578 64.1899 29.7578 63.6969C29.7578 63.2039 30.1878 62.7725 30.6793 62.7725H35.6554C36.1469 62.7725 36.5769 63.2039 36.5769 63.6969C36.5769 64.1899 36.1469 64.6213 35.6554 64.6213Z" fill="#B3BFD3"/>
<path d="M60.536 73.7419H52.0582C51.5668 73.7419 51.1367 73.3105 51.1367 72.8175C51.1367 72.3245 51.5668 71.8931 52.0582 71.8931H60.536C61.0275 71.8931 61.4575 72.3245 61.4575 72.8175C61.519 73.3105 61.0889 73.7419 60.536 73.7419Z" fill="#B3BFD3"/>
<path d="M46.4677 73.7419H30.6793C30.1878 73.7419 29.7578 73.3105 29.7578 72.8175C29.7578 72.3245 30.1878 71.8931 30.6793 71.8931H46.4677C46.9592 71.8931 47.3892 72.3245 47.3892 72.8175C47.3892 73.3105 46.9592 73.7419 46.4677 73.7419Z" fill="#D4DBEC"/>
<path d="M48.4334 82.3081H60.843C60.843 84.4034 61.7031 86.3139 63.0546 87.6697C64.4061 89.0871 66.3106 89.8882 68.3993 89.8882H12.5563C10.4676 89.8882 8.56314 89.0255 7.2116 87.6697C5.86007 86.3139 5 84.4034 5 82.3081H41.7372C41.7372 82.3081 48.5563 82.3697 48.4334 82.3081Z" fill="#CCD4E2"/>
<path d="M101.708 76.4062L93.9512 68.6556L95.7294 66.8774L103.48 74.6341L101.708 76.4062Z" fill="#858B9B"/>
<path d="M104.404 79.1333L98.4565 73.1855C97.9598 72.6888 97.9598 71.8794 98.4565 71.3828C98.9532 70.8861 99.7625 70.8861 100.259 71.3828L106.207 77.3305C106.704 77.8272 106.704 78.6366 106.207 79.1333C105.71 79.6299 104.901 79.6299 104.404 79.1333Z" fill="#858B9B"/>
<path d="M103.981 79.5133L96.3287 71.8609C96.1509 71.6831 96.1509 71.3949 96.3287 71.211L98.2847 69.2549C98.4625 69.0771 98.7507 69.0771 98.9347 69.2549L106.587 76.9074C106.765 77.0852 106.765 77.3734 106.587 77.5573L104.631 79.5133C104.447 79.6912 104.159 79.6912 103.981 79.5133Z" fill="url(#paint1_linear_35421_42307)"/>
<path d="M85.1704 43.6812C77.052 43.6812 70.4727 50.2605 70.4727 58.3789C70.4727 66.4912 77.052 73.0767 85.1643 73.0767C93.2827 73.0767 99.8621 66.4973 99.8621 58.3789C99.8621 50.2605 93.2827 43.6812 85.1704 43.6812ZM85.1704 70.3542C78.6524 70.3542 73.373 64.9889 73.373 58.3728C73.373 51.7566 78.6524 46.3975 85.1704 46.3975C91.6885 46.3975 96.9679 51.7628 96.9679 58.3789C96.9679 64.9951 91.6823 70.3542 85.1704 70.3542Z" fill="url(#paint2_linear_35421_42307)"/>
<defs>
<filter id="filter0_d_35421_42307" x="0.139648" y="3.94971" width="108.075" height="119" filterUnits="userSpaceOnUse" color-interpolation-filters="sRGB">
<feFlood flood-opacity="0" result="BackgroundImageFix"/>
<feColorMatrix in="SourceAlpha" type="matrix" values="0 0 0 0 0 0 0 0 0 0 0 0 0 0 0 0 0 0 127 0" result="hardAlpha"/>
<feOffset dy="11"/>
<feGaussianBlur stdDeviation="11"/>
<feColorMatrix type="matrix" values="0 0 0 0 0.397708 0 0 0 0 0.47749 0 0 0 0 0.575 0 0 0 0.27 0"/>
<feBlend mode="normal" in2="BackgroundImageFix" result="effect1_dropShadow_35421_42307"/>
<feBlend mode="normal" in="SourceGraphic" in2="effect1_dropShadow_35421_42307" result="shape"/>
</filter>
<linearGradient id="paint0_linear_35421_42307" x1="54.1563" y1="13.2149" x2="54.1563" y2="90.7583" gradientUnits="userSpaceOnUse">
<stop stop-color="#FDFEFF"/>
<stop offset="0.9964" stop-color="#ECF0F5"/>
</linearGradient>
<linearGradient id="paint1_linear_35421_42307" x1="96.1905" y1="74.3853" x2="106.722" y2="74.3853" gradientUnits="userSpaceOnUse">
<stop stop-color="#B0BACC"/>
<stop offset="1" stop-color="#969EAE"/>
</linearGradient>
<linearGradient id="paint2_linear_35421_42307" x1="70.4592" y1="58.3821" x2="99.8674" y2="58.3821" gradientUnits="userSpaceOnUse">
<stop stop-color="#B0BACC"/>
<stop offset="1" stop-color="#969EAE"/>
</linearGradient>
</defs>
</svg>
